<svg width="21" height="18" viewBox="0 0 21 18" fill="none" xmlns="http://www.w3.org/2000/svg">
<path d="M20.6666 2.79721C19.9308 3.12388 19.14 3.34388 18.31 3.44305C19.1575 2.93555 19.8083 2.13138 20.1141 1.17305C19.3216 1.64305 18.4433 1.98471 17.5083 2.16888C16.7608 1.37138 15.6933 0.873047 14.5133 0.873047C11.8641 0.873047 9.91746 3.34471 10.5158 5.91055C7.10663 5.73971 4.08329 4.10638 2.05913 1.62388C0.984126 3.46805 1.50163 5.88055 3.32829 7.10221C2.65663 7.08055 2.02329 6.89638 1.47079 6.58888C1.42579 8.48971 2.78829 10.268 4.76163 10.6639C4.18413 10.8205 3.55163 10.8572 2.90829 10.7339C3.42996 12.3639 4.94496 13.5497 6.74163 13.583C5.01663 14.9355 2.84329 15.5397 0.666626 15.283C2.48246 16.4472 4.63996 17.1264 6.95663 17.1264C14.575 17.1264 18.8791 10.6922 18.6191 4.92138C19.4208 4.34221 20.1166 3.61971 20.6666 2.79721Z" fill="white"/>
</svg>
